<?xml version="1.0" encoding="iso-8859-1"?>
<!-- Generator: Adobe Illustrator 19.0.0, SVG Export Plug-In . SVG Version: 6.00 Build 0)  -->
<svg xmlns="http://www.w3.org/2000/svg" xmlns:xlink="http://www.w3.org/1999/xlink" version="1.1" id="Layer_1" x="0px" y="0px" viewBox="0 0 512 512" style="enable-background:new 0 0 512 512;" xml:space="preserve" width="512" height="512">
<g id="XMLID_88_">
	<g id="XMLID_90_">
		<g id="XMLID_91_">
			<path id="XMLID_1863_" style="fill:#37D0F5;" d="M313.051,230.481l37.544-37.544L177.919,59.854     c-18.887-14.556-46.059,0.331-43.956,24.084l0,0c4.185,47.273,34.521,88.208,78.531,105.967L313.051,230.481z"/>
			<path id="XMLID_92_" style="fill:#00ACEF;" d="M325.291,218.237l-12.241,12.241l-100.552-40.572     c-22.001-8.882-40.592-23.553-54.201-41.92s-22.236-40.419-24.329-64.053c-1.613-18.193,13.966-31.19,29.832-29.719     c-5.237,5.299-8.382,12.803-7.616,21.501c2.093,23.635,10.72,45.687,24.329,64.053c13.609,18.356,32.2,33.038,54.201,41.909     L325.291,218.237z"/>
		</g>
		<path id="XMLID_1606_" style="fill:#4E768E;" d="M323.131,240.097c-46.621-28.429-114.317-2.437-151.204,58.054    c-36.887,60.491-28.995,132.575,17.626,161.004l81.065,51.94c4.063,2.603,9.305-0.77,8.619-5.546v0    c-3.398-23.666,5.872-47.471,24.602-62.331c13.951-11.068,26.632-25.25,36.917-42.117    C377.643,340.61,369.752,268.526,323.131,240.097z"/>
		<path id="XMLID_96_" style="fill:#38627C;" d="M340.754,401.099c-10.277,16.873-22.966,31.052-36.914,42.115    c-16.171,12.836-25.294,32.331-25.294,52.655c0,3.22,0.231,6.449,0.692,9.679c0.682,4.772-4.562,8.148-8.62,5.548l-21.645-13.864    c0.01-0.304-0.01-0.629-0.052-0.954c-0.461-3.23-0.692-6.46-0.692-9.669c0-20.323,9.124-39.818,25.294-52.655    c13.958-11.074,26.637-25.252,36.924-42.126c36.882-60.488,28.996-132.565-17.628-160.995c-1.059-0.65-2.129-1.258-3.209-1.846    c11.829,1.175,23.197,4.803,33.527,11.106C369.75,268.524,377.646,340.611,340.754,401.099z"/>
		<path id="XMLID_1597_" style="fill:#F8B159;" d="M298.529,300.031c19.243,19.243,41.622,32.665,64.261,39.88    c-1.438,10.93-4.204,22.061-8.335,33.087c-29.164-4.59-59.338-19.74-84.246-44.648c-24.782-24.782-39.902-54.777-44.581-83.793    c10.307-5.992,21.015-10.382,31.745-13.029C264.219,255.591,278.085,279.587,298.529,300.031z"/>
		<path id="XMLID_1596_" style="fill:#F8B159;" d="M230.227,378.76c27.504,27.504,61.414,43.098,93.3,45.738    c-6.155,6.97-12.769,13.229-19.688,18.724c-2.002,1.587-3.9,3.278-5.688,5.065c-1.431,1.431-2.781,2.914-4.064,4.449    c-31.552-2.914-65.003-18.479-92.18-45.656c-23.744-23.744-38.612-52.271-43.936-80.138c3.581-9.736,8.231-19.399,13.956-28.786    c3.782-6.199,7.883-12.035,12.258-17.493C185.586,313.905,201.336,349.87,230.227,378.76z"/>
		
			<ellipse id="XMLID_1595_" transform="matrix(0.7071 -0.7071 0.7071 0.7071 -50.7454 322.0059)" style="fill:#DD976D;" cx="363.323" cy="222.258" rx="57.696" ry="71.281"/>
		<path id="XMLID_97_" style="fill:#C47F4C;" d="M413.721,272.666c-10.969,10.969-26.27,15.573-42.304,14.199    c3.513-2.035,6.775-4.52,9.732-7.477c22.536-22.526,18.226-63.362-9.606-91.194c-14.283-14.294-31.996-22.379-48.9-23.816    c23.281-13.528,57.29-7.11,81.473,17.083C431.958,209.294,436.258,250.13,413.721,272.666z"/>
		<g id="XMLID_98_">
			<path id="XMLID_99_" style="fill:#00ACEF;" d="M404.539,86.487c-0.824,0-1.66-0.134-2.483-0.415     c-4-1.371-6.133-5.725-4.763-9.726l16.944-49.465c1.061-3.096,3.972-5.175,7.244-5.175h53.105c4.229,0,7.657,3.428,7.657,7.657     s-3.428,7.657-7.657,7.657h-47.635l-15.17,44.29C410.693,84.488,407.72,86.487,404.539,86.487z"/>
		</g>
		<path id="XMLID_1587_" style="fill:#DD976D;" d="M465.377,93.769c27.837,27.837,53.486,90.017,30.954,112.548    c-22.532,22.532-84.711-3.117-112.548-30.954s-27.051-63.582-4.519-86.114C401.795,66.718,437.54,65.932,465.377,93.769z"/>
		<g id="XMLID_100_">
			
				<ellipse id="XMLID_1584_" transform="matrix(0.8625 -0.5061 0.5061 0.8625 -10.1474 235.7161)" style="fill:#4E768E;" cx="428.632" cy="136.529" rx="19.41" ry="36.651"/>
		</g>
		<g id="XMLID_101_">
			<path id="XMLID_941_" style="fill:#AAEBF9;" d="M348.701,211.134L48.088,108.038c-25.494-8.743-49.193,17.039-38.337,41.708l0,0     c21.605,49.097,68.913,81.935,122.465,85.006l209.49,12.016c8.817,0.506,16.741-5.349,18.848-13.926v0     C362.817,223.629,357.675,214.212,348.701,211.134z"/>
			<path id="XMLID_103_" style="fill:#37D0F5;" d="M361.085,228.456c0,1.45-0.174,2.92-0.531,4.39     c-2.103,8.576-10.036,14.426-18.846,13.925l-209.496-12.016c-26.779-1.531-51.986-10.515-73.211-25.248     c-21.215-14.732-38.448-35.212-49.25-59.766c-6.83-15.518,0.02-31.475,12.384-39c-1.491,6.136-1.082,12.915,1.858,19.602     c10.801,24.554,28.025,45.033,49.25,59.755c21.225,14.732,46.442,23.706,73.211,25.248l209.496,12.016     c1.736,0.102,3.441-0.051,5.064-0.418C361.064,227.445,361.085,227.946,361.085,228.456z"/>
		</g>
	</g>
	<g id="XMLID_104_">
		<path id="XMLID_105_" style="fill:#37D0F5;" d="M382.334,99.971c-2.741,0-5.391-1.476-6.767-4.063l-31.391-59.014    c-0.97-1.825-1.163-3.962-0.533-5.93c0.63-1.967,2.028-3.596,3.876-4.518l51.422-25.64c3.785-1.887,8.383-0.348,10.269,3.436    c1.887,3.785,0.349,8.382-3.436,10.269l-44.387,22.133l27.699,52.073c1.986,3.734,0.569,8.371-3.164,10.356    C384.777,99.682,383.546,99.971,382.334,99.971z"/>
	</g>
</g>















</svg>
