<svg id="Capa_1" enable-background="new 0 0 512 512" height="512" viewBox="0 0 512 512" width="512" xmlns="http://www.w3.org/2000/svg"><path d="m346.89 435.174c-7.541 0-14.067-5.631-15-13.306l-14.387-118.394-32.009 7.553c-8.129 1.918-16.28-3.117-18.2-11.25-1.919-8.132 3.117-16.281 11.25-18.2l48.463-11.437c4.188-.988 8.599-.147 12.13 2.316 3.53 2.462 5.845 6.312 6.364 10.584l16.427 135.177c1.008 8.295-4.9 15.836-13.194 16.845-.62.075-1.236.112-1.844.112z" fill="#d9495d"/><path d="m248.989 237.011c0 59.356-53.107 100.698-118.618 100.698s-130.371-41.342-130.371-100.698 64.86-107.474 130.371-107.474 118.618 48.117 118.618 107.474z" fill="#e26e7e"/><path d="m88.1 136.073c-48.537 15.078-88.1 54.58-88.1 100.938 0 59.356 64.86 100.698 130.371 100.698.814 0 1.624-.011 2.434-.024-104.62-55.296-89.002-157.078-44.705-201.612z" fill="#d9495d"/><path d="m358.668 262.432c0 53.241-47.635 90.323-106.397 90.323-58.761 0-106.397-37.082-106.397-90.323s47.635-96.401 106.397-96.401c58.762.001 106.397 43.161 106.397 96.401z" fill="#eda1ab"/><path d="m512 231.489c0 58.644-52.47 99.49-117.195 99.49s-117.195-40.846-117.195-99.49 52.47-106.185 117.195-106.185 117.195 47.541 117.195 106.185z" fill="#eda1ab"/><path d="m347.42 134.349c-41.118 16.49-69.81 53.776-69.81 97.14 0 58.644 52.47 99.49 117.195 99.49 27.109 0 52.066-7.169 71.921-19.807-156.501-4.119-162.647-115.944-119.306-176.823z" fill="#e26e7e"/><path d="m206.882 457.362c-.609 0-1.224-.037-1.844-.112-8.295-1.008-14.201-8.549-13.194-16.844l16.428-135.177c.519-4.272 2.834-8.122 6.364-10.584s7.942-3.304 12.13-2.316l48.463 11.437c8.132 1.919 13.169 10.067 11.25 18.2-1.919 8.132-10.069 13.171-18.2 11.25l-32.008-7.553-14.388 118.394c-.933 7.673-7.46 13.304-15.001 13.305z" fill="#d9495d"/><path d="m96.46 430.87c-1.043.001-2.102-.108-3.164-.334-8.173-1.74-13.388-9.775-11.649-17.947l28.768-135.178c.937-4.403 3.786-8.16 7.773-10.25 3.988-2.091 8.699-2.295 12.852-.563l52.435 21.887c7.711 3.219 11.353 12.079 8.135 19.79s-12.08 11.355-19.79 8.135l-35.606-14.862-24.972 117.341c-1.512 7.108-7.792 11.98-14.782 11.981z" fill="#d9495d"/><ellipse cx="338.786" cy="248.618" fill="#fff" rx="24.323" ry="19.369"/><ellipse cx="470.623" cy="248.618" fill="#fff" rx="24.323" ry="19.369"/><g fill="#4e5660"><path d="m352.961 236.795c-4.142 0-7.5-3.358-7.5-7.5v-8.589c0-4.142 3.358-7.5 7.5-7.5s7.5 3.358 7.5 7.5v8.589c0 4.143-3.358 7.5-7.5 7.5z"/><path d="m456.448 236.795c-4.142 0-7.5-3.358-7.5-7.5v-8.589c0-4.142 3.358-7.5 7.5-7.5s7.5 3.358 7.5 7.5v8.589c0 4.143-3.358 7.5-7.5 7.5z"/><path d="m404.705 243.391c-7.396 0-14.429-3.203-19.296-8.788-2.721-3.122-2.396-7.86.727-10.581 3.122-2.721 7.86-2.396 10.582.727 2.017 2.314 4.928 3.642 7.987 3.642s5.97-1.328 7.987-3.642c2.722-3.123 7.459-3.448 10.581-.727 3.123 2.721 3.448 7.459.727 10.581-4.866 5.585-11.899 8.788-19.295 8.788z"/></g><path d="m352.953 167.841c-3.559 0-6.717-2.543-7.371-6.168-6.132-33.949 7.565-78.307 30.532-98.882 3.085-2.763 7.827-2.503 10.591.582s2.503 7.827-.582 10.591c-18.864 16.898-30.911 56.639-25.78 85.043.736 4.076-1.971 7.978-6.047 8.713-.452.081-.901.121-1.343.121z" fill="#d9495d"/><path d="m432.832 161.603c-3.559 0-6.717-2.543-7.372-6.168-2.909-16.107-1.377-35.279 4.315-53.987 5.773-18.978 15.085-34.921 26.218-44.895 3.085-2.764 7.827-2.503 10.591.582s2.503 7.827-.582 10.591c-18.864 16.898-30.911 56.638-25.78 85.043.736 4.076-1.971 7.977-6.047 8.713-.451.081-.9.121-1.343.121z" fill="#d9495d"/></svg>