<?xml version="1.0" encoding="UTF-8" standalone="no"?>
<!DOCTYPE svg PUBLIC "-//W3C//DTD SVG 1.1//EN" "http://www.w3.org/Graphics/SVG/1.1/DTD/svg11.dtd">
<svg width="100%" height="100%" viewBox="0 0 200 200" version="1.1" xmlns="http://www.w3.org/2000/svg" xmlns:xlink="http://www.w3.org/1999/xlink" xml:space="preserve" xmlns:serif="http://www.serif.com/" style="fill-rule:evenodd;clip-rule:evenodd;">
    <rect x="0" y="0" width="200" height="200" style="fill:url(#_Linear1);"/>
    <g transform="matrix(5.621,0,0,5.621,24.96,139.97)">
        <g>
            <path d="M6.69,-4.82L4.5,-4.82L4.5,0L1.07,0L1.07,-14.22L6.75,-14.22C7.837,-14.22 8.797,-14.02 9.63,-13.62C10.47,-13.22 11.12,-12.65 11.58,-11.91C12.04,-11.17 12.27,-10.33 12.27,-9.39C12.27,-8.003 11.773,-6.897 10.78,-6.07C9.787,-5.237 8.423,-4.82 6.69,-4.82ZM4.5,-11.57L4.5,-7.47L6.75,-7.47C7.41,-7.47 7.917,-7.637 8.27,-7.97C8.617,-8.303 8.79,-8.773 8.79,-9.38C8.79,-10.04 8.61,-10.57 8.25,-10.97C7.89,-11.363 7.403,-11.563 6.79,-11.57L4.5,-11.57ZM22.19,-4.81L25.6,-4.81C25.553,-3.823 25.283,-2.95 24.79,-2.19C24.303,-1.43 23.62,-0.843 22.74,-0.43C21.86,-0.01 20.853,0.2 19.72,0.2C17.847,0.2 16.373,-0.41 15.3,-1.63C14.227,-2.85 13.69,-4.57 13.69,-6.79L13.69,-7.49C13.69,-8.883 13.933,-10.103 14.42,-11.15C14.907,-12.19 15.603,-12.997 16.51,-13.57C17.423,-14.137 18.48,-14.42 19.68,-14.42C21.407,-14.42 22.793,-13.967 23.84,-13.06C24.887,-12.153 25.483,-10.903 25.63,-9.31L22.21,-9.31C22.183,-10.177 21.963,-10.797 21.55,-11.17C21.143,-11.55 20.52,-11.74 19.68,-11.74C18.827,-11.74 18.2,-11.42 17.8,-10.78C17.407,-10.14 17.2,-9.12 17.18,-7.72L17.18,-6.72C17.18,-5.2 17.37,-4.117 17.75,-3.47C18.13,-2.817 18.787,-2.49 19.72,-2.49C20.507,-2.49 21.107,-2.677 21.52,-3.05C21.94,-3.417 22.163,-4.003 22.19,-4.81Z" style="fill:white;fill-rule:nonzero;stroke:white;stroke-width:0.8px;"/>
        </g>
    </g>
    <defs>
        <linearGradient id="_Linear1" x1="0" y1="0" x2="1" y2="0" gradientUnits="userSpaceOnUse" gradientTransform="matrix(93.8943,176.59,-176.59,93.8943,141.348,-35.2419)"><stop offset="0" style="stop-color:rgb(42,188,138);stop-opacity:1"/><stop offset="1" style="stop-color:rgb(43,173,105);stop-opacity:1"/></linearGradient>
    </defs>
</svg>
