<svg id="Capa_1" enable-background="new 0 0 512 512" height="512" viewBox="0 0 512 512" width="512" xmlns="http://www.w3.org/2000/svg"><path d="m393.977 408.892c-6.943.001-13.092-4.975-14.341-12.048l-12.81-72.587h-30.913c-8.052 0-14.58-6.528-14.58-14.58 0-8.053 6.528-14.58 14.58-14.58h43.146c7.075 0 13.129 5.079 14.358 12.046l14.935 84.633c1.4 7.93-3.894 15.492-11.825 16.892-.856.151-1.709.224-2.55.224z" fill="#cb775a"/><path d="m420.533 235.109c0 77.234-75.875 111.204-169.47 111.204s-251.063-38.222-251.063-101.872 96.666-149.176 226.193-149.176 194.34 62.61 194.34 139.844z" fill="#b36d3a"/><path d="m417.3 261.227c2.114-8.087 3.232-16.783 3.232-26.118 0-77.234-64.813-139.845-194.34-139.845s-226.192 85.526-226.192 149.177c85.779 25.712 258.374 53.017 417.3 16.786z" fill="#cb775a"/><path d="m111.553 119.097c-67.919 29.941-111.553 82.58-111.553 125.344 19.229 5.764 42.831 11.606 69.653 16.796-9.385-48.063 8.159-105.401 41.9-142.14z" fill="#d2996f"/><path d="m284.659 416.734c-.002 0-.004 0-.006 0-8.053-.003-14.578-6.534-14.574-14.586l.026-63.781c.002-3.922 1.583-7.677 4.386-10.419l25.787-25.216c5.758-5.629 14.988-5.526 20.618.231 5.629 5.757 5.526 14.988-.231 20.618l-21.403 20.928-.023 57.649c-.004 8.052-6.532 14.576-14.58 14.576z" fill="#cb775a"/><path d="m199.135 416.736c-.437 0-.877-.02-1.321-.06-8.02-.72-13.938-7.805-13.218-15.825l5.726-63.781c.366-4.083 2.435-7.822 5.698-10.303l36.741-27.93c6.41-4.874 15.557-3.627 20.431 2.783 4.873 6.411 3.627 15.557-2.783 20.431l-31.619 24.036-5.151 57.372c-.679 7.575-7.041 13.276-14.504 13.277z" fill="#cb775a"/><path d="m512 283.709c0 35.409-40.314 60.072-90.043 60.072s-90.043-24.663-90.043-60.072c0-35.41 40.314-64.115 90.043-64.115s90.043 28.706 90.043 64.115z" fill="#e1b89a"/><path d="m395.745 222.363c-36.941 7.993-63.83 32.43-63.83 61.346 0 35.41 40.313 60.072 90.043 60.072 2.567 0 5.102-.082 7.615-.211-71.561-19.272-77.108-86.35-33.828-121.207z" fill="#d2996f"/><ellipse cx="407.489" cy="293.918" fill="#fff" rx="14.892" ry="11.859"/><ellipse cx="486.422" cy="293.918" fill="#fff" rx="14.892" ry="11.859"/><path d="m414.382 289.588c-4.143 0-7.5-3.358-7.5-7.5v-5.259c0-4.142 3.357-7.5 7.5-7.5s7.5 3.358 7.5 7.5v5.259c0 4.142-3.358 7.5-7.5 7.5z" fill="#4e5660"/><path d="m477.743 289.588c-4.143 0-7.5-3.358-7.5-7.5v-5.259c0-4.142 3.357-7.5 7.5-7.5s7.5 3.358 7.5 7.5v5.259c0 4.142-3.357 7.5-7.5 7.5z" fill="#4e5660"/><path d="m446.063 293.626c-5.369 0-10.474-2.325-14.007-6.378-2.721-3.122-2.396-7.86.727-10.582 3.122-2.722 7.86-2.397 10.582.726.401.46 1.285 1.233 2.698 1.233s2.297-.773 2.698-1.233c2.722-3.123 7.459-3.448 10.582-.726 3.123 2.721 3.447 7.459.727 10.582-3.534 4.053-8.638 6.378-14.007 6.378z" fill="#4e5660"/><g fill="#d2996f"><path d="m417.604 245.675c-3.346 0-6.395-2.255-7.261-5.646-2.611-10.224-1.756-25.117 2.178-37.94 3.691-12.034 11.73-28.091 29.063-36.249 3.747-1.764 8.216-.157 9.98 3.592 1.764 3.748.155 8.216-3.592 9.98-12.369 5.822-18.308 17.938-21.11 27.077-3.601 11.736-3.553 23.689-1.985 29.83 1.025 4.013-1.398 8.097-5.411 9.122-.622.158-1.247.234-1.862.234z"/><path d="m467.641 245.675c-3.346 0-6.395-2.255-7.261-5.646-2.611-10.224-1.756-25.117 2.178-37.94 3.691-12.034 11.73-28.091 29.063-36.249 3.747-1.764 8.216-.157 9.98 3.592 1.764 3.748.155 8.216-3.592 9.98-12.369 5.822-18.308 17.938-21.11 27.077-3.6 11.736-3.553 23.689-1.985 29.83 1.025 4.013-1.397 8.097-5.411 9.122-.623.158-1.248.234-1.862.234z"/><path d="m258.862 278.677c-15.749-56.293 20.32-141.91 83.306-160.704-25.289-12.088-56.697-19.914-94.223-22.084-47.425 31.095-96.763 121.617-66.88 180.161 25.04 1.876 51.137 2.856 77.797 2.627z"/></g></svg>